<svg width="38" height="40" viewBox="0 0 38 40" fill="none" xmlns="http://www.w3.org/2000/svg">
<path d="M7.58696 15.909C7.93212 15.6877 8.03486 15.2179 7.81358 14.8728C6.53449 12.8776 7.11765 10.2112 9.11285 8.93208C11.1081 7.653 13.7745 8.23616 15.0536 10.2314C15.2748 10.5765 15.7446 10.6793 16.0897 10.458C16.4349 10.2367 16.5376 9.76697 16.3163 9.42181C14.5893 6.72787 10.9972 5.94226 8.3033 7.6693C5.60936 9.39634 4.82375 12.9884 6.55079 15.6823C6.77207 16.0275 7.2418 16.1302 7.58696 15.909Z" fill="url(#paint0_linear_199_4996)"/>
<path d="M24.7521 11.8891C24.2386 12.2184 23.8859 12.7058 23.696 13.2433C22.8955 12.8656 21.9354 12.8872 21.1356 13.3999C20.6389 13.7183 20.2922 14.1782 20.0999 14.6934C19.3157 14.341 18.3693 14.3656 17.5864 14.8675C17.2412 15.0888 16.9753 15.3781 16.7724 15.7101L13.6907 10.9031C12.8865 9.64872 11.2094 9.27469 9.94666 10.0842C8.68388 10.8938 8.31826 12.5655 9.12782 13.8283L15.4963 23.7622C14.9773 23.6197 14.3563 23.4477 13.6439 23.263C12.8433 23.0517 12.0843 23.1462 11.4337 23.5396C10.0735 24.364 9.64402 26.1954 9.5933 26.3943C9.52381 26.712 9.66219 27.0391 9.94498 27.2022C13.1487 29.0683 19.4241 32.7425 20.2375 33.3257C21.596 34.296 24.3948 35.2338 26.5583 33.8468L33.3269 29.5076C35.7683 27.9425 36.2575 24.9443 34.5143 22.2251L28.4049 12.6953C27.6169 11.4661 25.9867 11.1096 24.7575 11.8976L24.7521 11.8891ZM33.2461 23.0262C34.3201 24.7015 34.5071 26.9573 32.5119 28.2364L25.7434 32.5756C24.1607 33.5902 21.9327 32.6904 21.1085 32.0903C20.169 31.4216 13.199 27.3493 11.2224 26.1932C11.4141 25.714 11.7387 25.0901 12.221 24.8047C12.524 24.6104 12.8545 24.5886 13.266 24.6931C15.6734 25.3354 16.9923 25.7252 16.9923 25.7252C17.2986 25.8139 17.6196 25.7032 17.8044 25.454C17.9892 25.2049 18.0064 24.8613 17.8391 24.6003L10.402 12.9995C10.0404 12.4355 10.2036 11.6894 10.7677 11.3278C11.3317 10.9662 12.0777 11.1294 12.4393 11.6934L18.4786 21.1138C18.6999 21.459 19.1696 21.5617 19.5148 21.3404C19.8599 21.1191 19.9626 20.6494 19.7414 20.3043L18.0629 17.6861C17.7229 17.1557 17.877 16.4511 18.4074 16.1111C18.9377 15.7711 19.6423 15.9252 19.9823 16.4556L20.3277 16.9944C20.3277 16.9944 20.3439 17.0196 20.3493 17.028C20.3493 17.028 20.3547 17.0364 20.3601 17.0449L21.704 19.1411C21.9253 19.4862 22.395 19.589 22.7401 19.3677C23.0853 19.1464 23.188 18.6767 22.9668 18.3315L21.5959 16.1932C21.2697 15.6659 21.4292 14.9697 21.9512 14.6351C22.4731 14.3005 23.1861 14.4492 23.5262 14.9795L24.8862 17.101C25.1075 17.4462 25.5772 17.5489 25.9224 17.3276C26.2675 17.1064 26.3703 16.6366 26.149 16.2915L25.3286 15.0118C25.3168 14.9007 25.288 14.8003 25.2233 14.6993C24.8833 14.1689 25.0374 13.4643 25.5677 13.1243C26.0981 12.7843 26.8027 12.9384 27.1427 13.4688L33.2521 22.9986L33.2461 23.0262Z" fill="url(#paint1_linear_199_4996)"/>
<defs>
<linearGradient id="paint0_linear_199_4996" x1="8.65688" y1="15.223" x2="15.8884" y2="9.42166" gradientUnits="userSpaceOnUse">
<stop stop-color="#EBCD8C"/>
<stop offset="1" stop-color="#A47E4D"/>
</linearGradient>
<linearGradient id="paint1_linear_199_4996" x1="21.1734" y1="37.299" x2="36.5107" y2="26.3799" gradientUnits="userSpaceOnUse">
<stop stop-color="#EBCD8C"/>
<stop offset="1" stop-color="#A47E4D"/>
</linearGradient>
</defs>
</svg>
